<svg xmlns="http://www.w3.org/2000/svg" version="1.1" xmlns:xlink="http://www.w3.org/1999/xlink" xmlns:svgjs="http://svgjs.dev/svgjs" width="2000" height="449" viewBox="0 0 2000 449"><g transform="matrix(1,0,0,1,5.151292883577412,-1.775524765319858)"><svg viewBox="0 0 396 89" data-background-color="#ffffff" preserveAspectRatio="xMidYMid meet" height="449" width="2000" xmlns="http://www.w3.org/2000/svg" xmlns:xlink="http://www.w3.org/1999/xlink"><g id="tight-bounds" transform="matrix(1,0,0,1,0.28047139768000307,0.3519414345511507)"><svg viewBox="0 0 395.52 88.06528158255846" height="88.06528158255846" width="395.52"><g><svg viewBox="0 0 523.2030354110384 116.49479833718244" height="88.06528158255846" width="395.52"><g transform="matrix(1,0,0,1,127.68303541103839,35.99858359617288)"><svg viewBox="0 0 395.52 44.49763114483669" height="44.49763114483669" width="395.52"><g id="textblocktransform"><svg viewBox="0 0 395.52 44.49763114483669" height="44.49763114483669" width="395.52" id="textblock"><g><svg viewBox="0 0 395.52 44.49763114483669" height="44.49763114483669" width="395.52"><g transform="matrix(1,0,0,1,0,0)"><svg width="395.52" viewBox="1.1700000762939453 -32.810001373291016 295.97998046875 33.30000305175781" height="44.49763114483669" data-palette-color="#ffffff"><path d="M10.77-32.15Q14.06-32.03 16.16-32.03 18.26-32.03 21.58-32.15 24.9-32.28 26.9-32.32L26.9-32.32Q28.13-32.32 30.27-32.81L30.27-32.81 31.2-25.34Q30.86-25 29.88-25L29.88-25Q29.49-25 29.39-25.24L29.39-25.24Q28.71-27.93 27.59-28.88 26.46-29.83 24.07-29.83L24.07-29.83Q19.53-29.83 19.34-29L19.34-29Q18.9-27.59 18.9-24.41L18.9-24.41 18.9-6.79Q18.9-4.15 19.34-2.54L19.34-2.54Q19.38-2.2 20.65-1.83 21.92-1.46 22.36-1.46L22.36-1.46Q22.56-1.46 22.56-0.59L22.56-0.59Q22.56-0.1 22.46 0.2L22.46 0.2Q21.83 0.15 20.58 0.05 19.34-0.05 18.29-0.1 17.24-0.15 16.26-0.15L16.26-0.15Q14.94-0.15 12.62 0 10.3 0.15 9.77 0.2L9.77 0.2Q9.57 0 9.57-0.59L9.57-0.59Q9.57-1.46 9.77-1.46L9.77-1.46Q10.35-1.46 11.6-1.81 12.84-2.15 12.99-2.54L12.99-2.54Q13.38-3.86 13.38-6.59L13.38-6.59 13.38-24.27Q13.38-28.32 12.94-29L12.94-29Q12.55-29.83 8.3-29.83L8.3-29.83Q5.91-29.83 4.79-28.88 3.66-27.93 2.93-25.29L2.93-25.29Q2.88-25 2.44-25L2.44-25Q1.51-25 1.17-25.39L1.17-25.39 2.1-32.81Q4.25-32.32 5.47-32.32L5.47-32.32Q7.47-32.28 10.77-32.15ZM40.33-32.08L40.33-32.08Q42.48-32.08 47.9-32.25 53.32-32.42 56.1-32.42L56.1-32.42Q56.3-30.96 56.88-28.34 57.47-25.73 57.52-25.49L57.52-25.49Q57.27-25.24 56.49-25.24L56.49-25.24Q55.95-25.24 55.81-25.59L55.81-25.59Q54.2-29.93 49.56-29.93L49.56-29.93 47.02-29.93Q43.41-29.93 43.31-29.3L43.31-29.3Q43.02-27.93 43.02-25.34L43.02-25.34 43.02-17.68Q43.02-17.38 45.16-17.38L45.16-17.38 47.7-17.38Q47.75-17.38 47.9-17.38L47.9-17.38Q50.73-17.38 51.27-17.63 51.8-17.87 52.1-19.34L52.1-19.34Q52.24-20.07 52.39-20.56L52.39-20.56Q52.44-20.9 53.17-20.9L53.17-20.9Q53.85-20.9 54.1-20.65L54.1-20.65 54.1-11.43Q53.9-11.23 53.17-11.23L53.17-11.23Q52.54-11.23 52.39-11.62L52.39-11.62Q52.05-12.94 51.78-13.57 51.51-14.21 51.44-14.26 51.36-14.31 51.02-14.55L51.02-14.55Q50.39-14.94 46.53-14.94L46.53-14.94Q43.02-14.94 43.02-14.55L43.02-14.55 43.02-6.98Q43.02-4.3 43.45-3.03L43.45-3.03Q43.7-2.39 46.77-2.39L46.77-2.39 48.58-2.39Q52.39-2.39 54.39-3.42L54.39-3.42Q55.17-3.81 56.15-5.13 57.13-6.45 57.66-8.11L57.66-8.11Q57.71-8.4 58.35-8.4L58.35-8.4Q59.42-8.4 59.71-8.11L59.71-8.11Q59.57-7.67 59.01-6.1 58.44-4.54 58.15-3.74 57.86-2.93 57.52-1.76 57.18-0.59 57.08 0.15L57.08 0.15Q55.12 0.15 49 0 42.87-0.15 40.38-0.05L40.38-0.05 33.88 0.15Q33.74 0 33.74-0.63L33.74-0.63Q33.74-1.46 33.88-1.46L33.88-1.46Q34.52-1.46 35.74-1.78 36.96-2.1 37.16-2.54L37.16-2.54Q37.5-3.56 37.5-6.98L37.5-6.98 37.5-25.44Q37.5-28.37 37.16-29.44L37.16-29.44Q37.01-29.98 35.79-30.32 34.57-30.66 33.84-30.66L33.84-30.66Q33.64-30.66 33.64-31.4L33.64-31.4Q33.64-32.08 33.84-32.28L33.84-32.28Q37.06-32.08 40.33-32.08ZM90.86-8.89L90.86-8.89Q90.86-8.25 90.13-5.1 89.4-1.95 89.01-1.76L89.01-1.76Q84.76 0.29 77.68 0.29L77.68 0.29Q71.24 0.29 66.69-4.44 62.15-9.18 62.15-15.72L62.15-15.72Q62.15-22.66 66.79-27.61 71.43-32.57 78.22-32.57L78.22-32.57Q83.74-32.57 89.74-31.25L89.74-31.25Q89.89-31.2 90.03-28.05 90.18-24.9 90.18-24.12L90.18-24.12Q90.18-23.39 89.01-23.39L89.01-23.39Q88.72-23.39 88.33-23.58L88.33-23.58Q88.13-24.46 87.62-25.39 87.1-26.32 86.08-27.49 85.05-28.66 83.05-29.42 81.05-30.18 78.41-30.18L78.41-30.18Q73.63-30.18 70.97-26.22 68.31-22.27 68.31-16.75L68.31-16.75Q68.31-10.6 71.31-6.32 74.31-2.05 79.78-2.05L79.78-2.05Q84.13-2.05 86.66-4.79L86.66-4.79Q87.3-5.47 87.81-6.62 88.33-7.76 88.59-8.54 88.86-9.33 88.96-9.33L88.96-9.33Q90.67-9.33 90.86-8.89ZM124.99-1.46L124.99-1.46Q125.19-1.46 125.19-0.54L125.19-0.54Q125.19-0.15 125.09 0.15L125.09 0.15Q119.23-0.15 118.89-0.15L118.89-0.15Q117.91-0.15 116.84-0.1 115.76-0.05 114.47 0.02 113.18 0.1 112.39 0.15L112.39 0.15Q112.2-0.05 112.2-0.54L112.2-0.54Q112.2-1.46 112.39-1.46L112.39-1.46Q112.98-1.46 114.23-1.81 115.47-2.15 115.62-2.54L115.62-2.54Q116.01-4.05 116.01-6.64L116.01-6.64 116.01-15.04 115.91-15.23Q111.32-15.33 109.47-15.33L109.47-15.33Q102.73-15.23 102.73-15.09L102.73-15.09 102.73-6.93Q102.73-4.25 103.17-2.54L103.17-2.54Q103.26-2.2 104.51-1.83 105.75-1.46 106.19-1.46L106.19-1.46Q106.39-1.46 106.39-0.54L106.39-0.54Q106.39-0.15 106.29 0.15L106.29 0.15Q100.43-0.15 100.09-0.15L100.09-0.15Q99.11-0.15 98.04-0.1 96.97-0.05 95.67 0.02 94.38 0.1 93.6 0.15L93.6 0.15Q93.4-0.05 93.4-0.54L93.4-0.54Q93.4-1.46 93.6-1.46L93.6-1.46Q94.18-1.46 95.43-1.81 96.67-2.15 96.82-2.54L96.82-2.54Q97.21-4.05 97.21-6.64L97.21-6.64 97.21-25.49Q97.21-28.42 96.82-29.59L96.82-29.59Q96.62-29.98 95.45-30.35 94.28-30.71 93.69-30.71L93.69-30.71Q93.5-30.71 93.5-31.45L93.5-31.45Q93.5-32.23 93.6-32.32L93.6-32.32Q93.84-32.32 96.31-32.18 98.77-32.03 100.09-32.03L100.09-32.03Q100.48-32.03 106.34-32.32L106.34-32.32Q106.49-31.88 106.49-31.54L106.49-31.54Q106.49-30.71 106.29-30.71L106.29-30.71Q105.85-30.71 104.53-30.32 103.22-29.93 103.12-29.59L103.12-29.59Q102.73-28.08 102.73-25.29L102.73-25.29 102.73-18.16 102.82-18.02Q107.61-17.92 109.47-17.92L109.47-17.92Q111.52-17.92 115.91-18.02L115.91-18.02Q116.01-18.12 116.01-18.21L116.01-18.21 116.01-25.49Q116.01-28.42 115.62-29.59L115.62-29.59Q115.42-29.98 114.25-30.35 113.08-30.71 112.49-30.71L112.49-30.71Q112.3-30.71 112.3-31.45L112.3-31.45Q112.3-32.23 112.39-32.32L112.39-32.32Q112.64-32.32 115.1-32.18 117.57-32.03 118.89-32.03L118.89-32.03Q119.28-32.03 125.14-32.32L125.14-32.32Q125.29-31.88 125.29-31.54L125.29-31.54Q125.29-30.71 125.09-30.71L125.09-30.71Q124.65-30.71 123.33-30.32 122.01-29.93 121.92-29.59L121.92-29.59Q121.53-28.08 121.53-25.29L121.53-25.29 121.53-6.93Q121.53-4.25 121.97-2.54L121.97-2.54Q122.06-2.2 123.31-1.83 124.55-1.46 124.99-1.46ZM128.21-10.11L128.21-10.11Q128.21-12.89 128.8-12.89L128.8-12.89 128.85-12.89 140.62-13.48 140.66-13.48Q140.96-13.48 140.96-13.04L140.96-13.04Q140.96-11.96 140.81-11.23 140.66-10.5 140.47-10.3L140.47-10.3 140.32-10.11 128.55-9.57Q128.51-9.57 128.46-9.57 128.41-9.57 128.31-9.72 128.21-9.86 128.21-10.11ZM175.38-1.46L175.38-1.46Q175.57-1.46 175.57-0.54L175.57-0.54Q175.57-0.15 175.48 0.15L175.48 0.15Q169.62-0.15 169.27-0.15L169.27-0.15Q168.3-0.15 167.22-0.1 166.15-0.05 164.86 0.02 163.56 0.1 162.78 0.15L162.78 0.15Q162.59-0.05 162.59-0.54L162.59-0.54Q162.59-1.46 162.78-1.46L162.78-1.46Q163.37-1.46 164.61-1.81 165.86-2.15 166-2.54L166-2.54Q166.39-4.05 166.39-6.64L166.39-6.64 166.39-15.04 166.3-15.23Q161.71-15.33 159.85-15.33L159.85-15.33Q153.11-15.23 153.11-15.09L153.11-15.09 153.11-6.93Q153.11-4.25 153.55-2.54L153.55-2.54Q153.65-2.2 154.89-1.83 156.14-1.46 156.58-1.46L156.58-1.46Q156.77-1.46 156.77-0.54L156.77-0.54Q156.77-0.15 156.68 0.15L156.68 0.15Q150.82-0.15 150.48-0.15L150.48-0.15Q149.5-0.15 148.43-0.1 147.35-0.05 146.06 0.02 144.76 0.1 143.98 0.15L143.98 0.15Q143.79-0.05 143.79-0.54L143.79-0.54Q143.79-1.46 143.98-1.46L143.98-1.46Q144.57-1.46 145.81-1.81 147.06-2.15 147.2-2.54L147.2-2.54Q147.59-4.05 147.59-6.64L147.59-6.64 147.59-25.49Q147.59-28.42 147.2-29.59L147.2-29.59Q147.01-29.98 145.84-30.35 144.67-30.71 144.08-30.71L144.08-30.71Q143.88-30.71 143.88-31.45L143.88-31.45Q143.88-32.23 143.98-32.32L143.98-32.32Q144.23-32.32 146.69-32.18 149.16-32.03 150.48-32.03L150.48-32.03Q150.87-32.03 156.73-32.32L156.73-32.32Q156.87-31.88 156.87-31.54L156.87-31.54Q156.87-30.71 156.68-30.71L156.68-30.71Q156.24-30.71 154.92-30.32 153.6-29.93 153.5-29.59L153.5-29.59Q153.11-28.08 153.11-25.29L153.11-25.29 153.11-18.16 153.21-18.02Q158-17.92 159.85-17.92L159.85-17.92Q161.9-17.92 166.3-18.02L166.3-18.02Q166.39-18.12 166.39-18.21L166.39-18.21 166.39-25.49Q166.39-28.42 166-29.59L166-29.59Q165.81-29.98 164.64-30.35 163.46-30.71 162.88-30.71L162.88-30.71Q162.68-30.71 162.68-31.45L162.68-31.45Q162.68-32.23 162.78-32.32L162.78-32.32Q163.02-32.32 165.49-32.18 167.96-32.03 169.27-32.03L169.27-32.03Q169.67-32.03 175.52-32.32L175.52-32.32Q175.67-31.88 175.67-31.54L175.67-31.54Q175.67-30.71 175.48-30.71L175.48-30.71Q175.04-30.71 173.72-30.32 172.4-29.93 172.3-29.59L172.3-29.59Q171.91-28.08 171.91-25.29L171.91-25.29 171.91-6.93Q171.91-4.25 172.35-2.54L172.35-2.54Q172.45-2.2 173.69-1.83 174.94-1.46 175.38-1.46ZM193.2-30.18L193.2-30.18Q189-30.18 186.78-26.34 184.56-22.51 184.56-17.09L184.56-17.09Q184.56-13.43 185.56-10.11 186.56-6.79 188.95-4.37 191.34-1.95 194.71-1.95L194.71-1.95Q198.86-1.95 201.13-5.83 203.4-9.72 203.4-15.09L203.4-15.09Q203.4-18.85 202.43-22.14 201.45-25.44 199.06-27.81 196.66-30.18 193.2-30.18ZM182.9-4.35Q178.31-9.18 178.31-16.02 178.31-22.85 182.9-27.71 187.49-32.57 193.93-32.57 200.38-32.57 204.99-27.71 209.6-22.85 209.6-16.02 209.6-9.18 204.99-4.35 200.38 0.49 193.93 0.49 187.49 0.49 182.9-4.35ZM218.73-32.03L218.73-32.03Q219.61-32.03 224.98-32.32L224.98-32.32Q225.08-31.93 225.08-31.54L225.08-31.54Q225.08-30.71 224.88-30.71L224.88-30.71Q224.45-30.71 223.13-30.35 221.81-29.98 221.76-29.59L221.76-29.59Q221.37-28.13 221.37-25.29L221.37-25.29 221.37-14.06Q221.37-9.03 223.54-6.03 225.71-3.03 229.57-3.03L229.57-3.03Q233.33-3.03 235.6-5.49 237.87-7.96 237.87-13.67L237.87-13.67 237.87-25.59Q237.87-28.56 237.38-29.49L237.38-29.49Q237.09-29.93 235.65-30.35 234.21-30.76 233.58-30.76L233.58-30.76Q233.38-30.76 233.36-31.45 233.33-32.13 233.48-32.32L233.48-32.32Q238.75-31.98 239.63-31.98L239.63-31.98Q240.85-31.98 242.88-32.15 244.9-32.32 245.39-32.32L245.39-32.32Q245.49-31.98 245.49-31.54L245.49-31.54Q245.49-30.76 245.3-30.76L245.3-30.76Q244.61-30.76 243.2-30.4 241.78-30.03 241.34-29.39L241.34-29.39Q240.8-28.17 240.8-25.34L240.8-25.34 240.8-13.87Q240.8-10.06 239.88-7.3 238.95-4.54 237.24-2.95 235.53-1.37 233.36-0.63 231.18 0.1 228.4 0.1L228.4 0.1Q222.54 0.1 219.17-3.44 215.8-6.98 215.8-14.84L215.8-14.84 215.8-25.49Q215.8-28.61 215.41-29.59L215.41-29.59Q215.22-29.98 214.05-30.35 212.87-30.71 212.29-30.71L212.29-30.71Q212.09-30.71 212.09-31.45 212.09-32.18 212.24-32.32L212.24-32.32Q218.44-32.03 218.73-32.03ZM248.56-23.93L248.56-23.93Q248.56-27.59 251.64-30.1 254.72-32.62 258.57-32.62L258.57-32.62Q259.94-32.62 260.97-32.47 261.99-32.32 263.82-31.86 265.65-31.4 266.34-31.25L266.34-31.25Q266.92-27.93 266.92-23.73L266.92-23.73Q266.83-23.29 266.34-23.29L266.34-23.29Q265.02-23.29 264.92-23.73L264.92-23.73Q264.63-25.98 262.82-28.13 261.02-30.27 258.43-30.27L258.43-30.27Q256.18-30.27 254.98-29 253.79-27.73 253.79-25.59L253.79-25.59Q253.79-24.85 253.96-24.19 254.13-23.54 254.64-22.9 255.16-22.27 255.47-21.85 255.79-21.44 256.69-20.8 257.6-20.17 257.91-19.92 258.23-19.68 259.38-18.97 260.53-18.26 260.77-18.16L260.77-18.16Q261.06-17.92 262.41-17.11 263.75-16.31 264.29-15.94 264.82-15.58 265.85-14.7 266.87-13.82 267.34-13.04 267.8-12.26 268.19-11.06 268.58-9.86 268.58-8.5L268.58-8.5Q268.58-4.59 265.43-2.05 262.28 0.49 258.13 0.49L258.13 0.49Q255.2 0.49 249.15-0.88L249.15-0.88Q248.71-2.64 248.34-5.3 247.98-7.96 247.98-8.79L247.98-8.79Q248.03-9.18 248.76-9.18L248.76-9.18Q250.03-9.18 250.18-8.79L250.18-8.79Q250.37-7.91 250.86-6.86 251.35-5.81 252.2-4.61 253.06-3.42 254.5-2.66 255.94-1.9 257.74-1.9L257.74-1.9Q260.04-1.9 261.55-3.27 263.07-4.64 263.07-7.37L263.07-7.37Q263.07-8.2 262.75-8.98 262.43-9.77 262.02-10.3 261.6-10.84 260.8-11.47 259.99-12.11 259.45-12.45 258.92-12.79 257.87-13.4 256.82-14.01 256.38-14.26L256.38-14.26Q256.23-14.4 255.84-14.65L255.84-14.65Q254.42-15.53 253.69-16.02 252.96-16.5 251.81-17.46 250.66-18.41 250.08-19.24 249.49-20.07 249.03-21.29 248.56-22.51 248.56-23.93ZM277.76-32.08L277.76-32.08Q279.91-32.08 285.33-32.25 290.75-32.42 293.53-32.42L293.53-32.42Q293.73-30.96 294.31-28.34 294.9-25.73 294.95-25.49L294.95-25.49Q294.7-25.24 293.92-25.24L293.92-25.24Q293.39-25.24 293.24-25.59L293.24-25.59Q291.63-29.93 286.99-29.93L286.99-29.93 284.45-29.93Q280.84-29.93 280.74-29.3L280.74-29.3Q280.45-27.93 280.45-25.34L280.45-25.34 280.45-17.68Q280.45-17.38 282.59-17.38L282.59-17.38 285.13-17.38Q285.18-17.38 285.33-17.38L285.33-17.38Q288.16-17.38 288.7-17.63 289.24-17.87 289.53-19.34L289.53-19.34Q289.67-20.07 289.82-20.56L289.82-20.56Q289.87-20.9 290.6-20.9L290.6-20.9Q291.29-20.9 291.53-20.65L291.53-20.65 291.53-11.43Q291.33-11.23 290.6-11.23L290.6-11.23Q289.97-11.23 289.82-11.62L289.82-11.62Q289.48-12.94 289.21-13.57 288.94-14.21 288.87-14.26 288.8-14.31 288.45-14.55L288.45-14.55Q287.82-14.94 283.96-14.94L283.96-14.94Q280.45-14.94 280.45-14.55L280.45-14.55 280.45-6.98Q280.45-4.3 280.89-3.03L280.89-3.03Q281.13-2.39 284.21-2.39L284.21-2.39 286.01-2.39Q289.82-2.39 291.82-3.42L291.82-3.42Q292.6-3.81 293.58-5.13 294.56-6.45 295.09-8.11L295.09-8.11Q295.14-8.4 295.78-8.4L295.78-8.4Q296.85-8.4 297.15-8.11L297.15-8.11Q297-7.67 296.44-6.1 295.88-4.54 295.58-3.74 295.29-2.93 294.95-1.76 294.61-0.59 294.51 0.15L294.51 0.15Q292.56 0.15 286.43 0 280.3-0.15 277.81-0.05L277.81-0.05 271.32 0.15Q271.17 0 271.17-0.63L271.17-0.63Q271.17-1.46 271.32-1.46L271.32-1.46Q271.95-1.46 273.17-1.78 274.39-2.1 274.59-2.54L274.59-2.54Q274.93-3.56 274.93-6.98L274.93-6.98 274.93-25.44Q274.93-28.37 274.59-29.44L274.59-29.44Q274.44-29.98 273.22-30.32 272-30.66 271.27-30.66L271.27-30.66Q271.07-30.66 271.07-31.4L271.07-31.4Q271.07-32.08 271.27-32.28L271.27-32.28Q274.49-32.08 277.76-32.08Z" opacity="1" transform="matrix(1,0,0,1,0,0)" fill="#ffffff" class="undefined-text-0" data-fill-palette-color="primary" id="text-0"></path></svg></g></svg></g></svg></g></svg></g><g><svg viewBox="0 0 117.17821264088992 116.49479833718244" height="116.49479833718244" width="117.17821264088992"><g><svg xmlns="http://www.w3.org/2000/svg" viewBox="20 20.17376136779785 60.018585205078125 59.668540954589844" x="0" y="0" height="116.49479833718244" width="117.17821264088992" class="icon-icon-0" data-fill-palette-color="accent" id="icon-0"><g data-name="Calque 2" fill="#ffffff" data-fill-palette-color="accent"><path d="M23.82 23.07A1.82 1.82 0 1 1 22 24.88 1.82 1.82 0 0 1 23.82 23.07Zm0 5.58a3.73 3.73 0 0 0 2-0.56c2.07 1.44 9.08 6.45 10.21 7.14a6.25 6.25 0 0 0 3.19 1.25c0.63 0 2 0.06 4.13 0.06A2.75 2.75 0 0 0 45.8 38a2.76 2.76 0 1 0-2.69-3.32c-1.94 0-3.26 0-3.82-0.06A3.81 3.81 0 0 1 37 33.71c-1-0.63-7.64-5.39-9.9-7A4 4 0 0 0 27.57 25a3.7 3.7 0 0 0-3.7-3.7 3.74 3.74 0 0 0-3.7 3.7A3.6 3.6 0 0 0 23.82 28.64Z" fill="#ffffff" data-fill-palette-color="accent"></path><path d="M22.13 44.61a1.82 1.82 0 1 1 1.82 1.82A1.78 1.78 0 0 1 22.13 44.61Zm5.39 0.94H33a2.71 2.71 0 0 0 2.57 1.82 2.76 2.76 0 0 0 0-5.51A2.71 2.71 0 0 0 33 43.67H27.52a3.76 3.76 0 0 0-3.57-2.76 3.7 3.7 0 0 0-3.7 3.7 3.74 3.74 0 0 0 3.7 3.7A3.52 3.52 0 0 0 27.52 45.55Z" fill="#ffffff" data-fill-palette-color="accent"></path><path d="M28.33 49.87a1.82 1.82 0 1 1-1.82 1.82A1.82 1.82 0 0 1 28.33 49.87Zm0 5.58a3.7 3.7 0 0 0 3.57-2.76H33a2.72 2.72 0 0 0 2.57 1.82 2.76 2.76 0 0 0 0-5.51A2.71 2.71 0 0 0 33 50.81H31.9a3.76 3.76 0 0 0-3.57-2.76 3.7 3.7 0 0 0 0 7.39Z" fill="#ffffff" data-fill-palette-color="accent"></path><path d="M23.7 75.24a1.82 1.82 0 1 1 1.82-1.82A1.78 1.78 0 0 1 23.7 75.24Zm1.06-5.39V63.4c0-2.94 1-3.57 2.69-3.57 2.07 0 4.38 0 5.39 0.06a2.73 2.73 0 0 0 2.63 1.82 2.76 2.76 0 1 0 0-5.51A2.71 2.71 0 0 0 32.9 58c-1.06 0-3.38-0.06-5.39-0.06-4.64 0-4.64 4.07-4.64 5.45v6.39A3.76 3.76 0 0 0 20 73.42a3.7 3.7 0 0 0 3.7 3.7 3.74 3.74 0 0 0 3.7-3.7A3.58 3.58 0 0 0 24.76 69.86Z" fill="#ffffff" data-fill-palette-color="accent"></path><path d="M75.06 75.24a1.82 1.82 0 1 1 1.82-1.82A1.82 1.82 0 0 1 75.06 75.24Zm0.81-5.45V63.4c0-1.31 0-5.45-4.57-5.45-2.07 0-4.38 0-5.39 0.06a2.71 2.71 0 0 0-2.57-1.82 2.76 2.76 0 1 0 0 5.51A2.85 2.85 0 0 0 66 59.9c1.06 0 3.38-0.06 5.39-0.06C73 59.83 74 60.4 74 63.4v6.45a3.7 3.7 0 0 0 1 7.26 3.71 3.71 0 0 0 0.82-7.33Z" fill="#ffffff" data-fill-palette-color="accent"></path><path d="M72.42 23.69A1.57 1.57 0 1 1 74 25.26 1.59 1.59 0 0 1 72.42 23.69ZM63.59 47.37A2.76 2.76 0 0 0 66 45.86h4.57c4.26 0 4.26-3.76 4.26-5V27a3.46 3.46 0 1 0-4.26-3.38A3.44 3.44 0 0 0 73.05 27v13.9c0 2.63-0.82 3.13-2.38 3.13H66.35a2.75 2.75 0 0 0-5.45 0.56A2.63 2.63 0 0 0 63.59 47.37Z" fill="#ffffff" data-fill-palette-color="accent"></path><path d="M76.37 50.13a1.82 1.82 0 1 1-1.82 1.82A1.78 1.78 0 0 1 76.37 50.13Zm-13 4.57A2.71 2.71 0 0 0 66 52.88h6.77a3.76 3.76 0 0 0 3.57 2.76A3.7 3.7 0 1 0 72.74 51H66a2.71 2.71 0 0 0-2.57-1.82 2.78 2.78 0 0 0-2.76 2.76A2.73 2.73 0 0 0 63.4 54.7Z" fill="#ffffff" data-fill-palette-color="accent"></path><rect x="40.48" y="39.98" width="18.04" height="23.93" rx="3.95" ry="3.95" fill="#ffffff" data-fill-palette-color="accent"></rect><path d="M40.48 24.45a1.82 1.82 0 1 1-1.82 1.82A1.86 1.86 0 0 1 40.48 24.45Zm0 5.58A3.7 3.7 0 0 0 44 27.33h6.26c0.69 0 1.31 0 1.57 0.25s0.31 0.44 0.31 1.25c0 1.13 0 2.63-0.06 3.82a2.76 2.76 0 1 0 3.76 2.57 2.76 2.76 0 0 0-1.94-2.63c0-1.19 0.06-2.63 0.06-3.76a3.32 3.32 0 0 0-0.82-2.57 3.69 3.69 0 0 0-2.88-0.75h-6.2A3.71 3.71 0 1 0 40.48 30Z" fill="#ffffff" data-fill-palette-color="accent"></path><path d="M35 76.18a1.82 1.82 0 1 1-1.82-1.82A1.78 1.78 0 0 1 35 76.18ZM45.8 66A2.71 2.71 0 0 0 43.3 67.6h-7c-1.31 0-4.07 0-4.07 3.7v1.25a3.68 3.68 0 0 0 0.88 7.27 3.74 3.74 0 0 0 3.7-3.7 3.7 3.7 0 0 0-2.69-3.57c0-0.37-0.06-0.82-0.06-1.25 0-1.69 0.56-1.82 2.19-1.82h6.83a2.69 2.69 0 0 0 2.63 2 2.78 2.78 0 0 0 2.76-2.76A2.69 2.69 0 0 0 45.8 66Z" fill="#ffffff" data-fill-palette-color="accent"></path><path d="M62.71 78a1.82 1.82 0 0 1-1.82-1.82 1.87 1.87 0 0 1 1.82-1.88 1.82 1.82 0 0 1 1.82 1.82A1.87 1.87 0 0 1 62.71 78Zm0.88-5.45V71.29c0-3.7-2.76-3.7-4.07-3.7H55.7A2.67 2.67 0 0 0 53.2 66a2.76 2.76 0 1 0 2.63 3.51h3.7c1.63 0 2.19 0.12 2.19 1.82a8.09 8.09 0 0 1-0.06 1.25 3.7 3.7 0 1 0 4.7 3.57A3.57 3.57 0 0 0 63.59 72.55Z" fill="#ffffff" data-fill-palette-color="accent"></path></g></svg></g></svg></g></svg></g><defs></defs></svg><rect width="395.52" height="88.06528158255846" fill="none" stroke="none" visibility="hidden"></rect></g></svg></g></svg>